<mxfile host="app.diagrams.net" modified="2023-07-23T08:03:44.535Z" agent="Mozilla/5.0 (Windows NT 10.0; Win64; x64) AppleWebKit/537.36 (KHTML, like Gecko) Chrome/114.0.0.0 Safari/537.36" version="21.5.1" etag="4DgImSas9QQCF2O3OSaV" type="github">
  <diagram name="第 1 页" id="FAHDbUkvdLautjBa4_Pv">
    <mxGraphModel>
      <root>
        <mxCell id="0" />
        <mxCell id="1" parent="0" />
      </root>
    </mxGraphModel>
  </diagram>
</mxfile>
